<svg id="Capa_1" enable-background="new 0 0 497 497" height="512" viewBox="0 0 497 497" width="512" xmlns="http://www.w3.org/2000/svg"><g><path d="m402.293 2.304c-16.61-6.501-35.406 1.214-42.889 17.405-6.805 14.725-2.183 32.158 10.95 41.68 17.478 12.673 38.123 34.732 38.123 68.223l28.295 21.525c54.639-95.723 2.981-134.171-34.479-148.833z" fill="#ffb3dd"/><path d="m295.965 239.331h-279.614c-8.496 18.027-13.214 38-13.214 59.02 0 32.307 11.152 62.143 30.006 86.245 10.076 12.881 16.538 28.175 18.701 44.385 1.457 10.92 4.22 24.395 9.404 38.618 6.436 17.657 23.243 29.4 42.036 29.4h105.749c18.793 0 35.601-11.743 42.036-29.4 5.184-14.224 7.947-27.698 9.404-38.618 2.163-16.21 8.624-31.504 18.701-44.385 18.854-24.102 30.006-53.938 30.006-86.245-.001-21.019-4.72-40.993-13.215-59.02z" fill="#a19dae"/><path d="m398.727 92.252c5.846 10.406 9.75 22.801 9.75 37.36l28.295 21.525c5.709-10.002 10.243-19.37 13.768-28.16-15.12-13.298-32.683-23.782-51.813-30.725z" fill="#ff9dd3"/><path d="m473.034 218.971c-11.676-59.93-64.492-105.746-127.696-106.321-5.723-.052-11.362.262-16.908.921l10.619 60.114 115.629 55.567z" fill="#ff748f"/><path d="m41.796 202.022c28.019-29.85 68.875-48.662 114.356-48.662 45.491 0 86.348 18.812 114.367 48.662v35.298l-114.362 47.359-114.361-45.348z" fill="#ff748f"/><path d="m58.945 316.364c0-26.638 3.547-52.454 10.167-77.032h-52.761c-8.496 18.027-13.214 38-13.214 59.02 0 32.307 11.152 62.143 30.006 86.245 10.076 12.881 16.538 28.175 18.701 44.385 1.457 10.92 4.22 24.395 9.404 38.618 6.436 17.657 23.243 29.4 42.036 29.4h17.185c-38.599-50.174-61.524-112.756-61.524-180.636z" fill="#938ea3"/><path d="m101.943 162.738c-23.3 8.369-43.888 21.962-60.147 39.284v37.31l24.829 9.845c7.192-30.922 19.249-60.006 35.318-86.439z" fill="#fd5f7e"/><g><path d="m295.965 239.331c-6.121 8.025-13.152 15.579-21.04 22.557-31.848 28.186-74.023 43.713-118.772 43.713-44.738 0-86.923-15.526-118.772-43.713-7.889-6.979-14.909-14.533-21.03-22.547 6.434-13.696 15.056-26.261 25.445-37.32 20.789 36.535 64.24 61.729 114.356 61.729s93.567-25.194 114.367-61.729c10.379 11.049 19.001 23.625 25.446 37.31z" fill="#f8e86a"/></g><ellipse cx="207.127" cy="209.264" fill="#b2b0bc" rx="98.807" ry="82.001" transform="matrix(.265 -.964 .964 .265 -49.576 353.475)"/><ellipse cx="207.127" cy="209.264" fill="#ffb3dd" rx="56.956" ry="40.15" transform="matrix(.265 -.964 .964 .265 -49.576 353.474)"/><path d="m474.373 260.78c-3.107 24.336-12.869 46.6-27.412 64.889 9.793 6.455 21.752 10.599 35.772 12.388 6.55.837 11.362 6.581 11.122 13.183l-.282 8.109c-.753 21.616-21.637 36.86-42.415 30.844-22.013-6.372-38.387-16.751-50.398-27.684-17.159 8.213-36.368 12.817-56.655 12.817-72.924 0-132.3-60.191-131.327-133.116.701-53.433 33.323-99.175 79.662-119.023l26.998 14.952 19.612 35.547 115.629 55.567z" fill="#c7c5cb"/><g><path d="m475.451 244.175c-.01 5.629-.377 11.164-1.078 16.604-.806-.46-1.664-.952-2.574-1.454-11.593-6.424-27.213-13.068-43.755-20.109-33.909-14.428-72.339-30.781-99.751-54.51-16.123-13.968-27.046-29.473-32.434-46.077-1.643-5.043-2.783-10.191-3.421-15.443 11.279-4.823 23.352-8.119 35.991-9.615.314 15.872 8.109 29.829 23.834 43.451 23.07 19.973 58.695 35.123 90.125 48.505 10.724 4.562 21.124 8.987 30.645 13.445 1.602 8.16 2.428 16.593 2.418 25.203z" fill="#f8e86a"/></g><ellipse cx="380.607" cy="320.779" fill="#fff" rx="30.713" ry="24.458"/><g><path d="m398.507 304.734c-4.142 0-7.5-3.358-7.5-7.5v-12.555c0-4.142 3.358-7.5 7.5-7.5s7.5 3.358 7.5 7.5v12.555c0 4.142-3.358 7.5-7.5 7.5z" fill="#423e4f"/></g><path d="m163.658 497v-54.701c17.339-.963 32.823-5.261 43.268-12.119 3.463-2.273 4.427-6.923 2.153-10.386s-6.923-4.426-10.386-2.153c-9.408 6.177-25.309 9.865-42.536 9.865-17.226 0-33.126-3.688-42.535-9.864-3.461-2.272-8.112-1.31-10.385 2.153s-1.309 8.113 2.154 10.386c10.445 6.857 25.929 11.154 43.267 12.118v54.701z" fill="#938ea3"/><path d="m70.331 234.882c-11.722-9.271-21.447-20.404-28.535-32.86-10.389 11.059-19.011 23.625-25.445 37.32 6.121 8.015 13.141 15.568 21.03 22.547 7.422 6.569 15.412 12.44 23.858 17.597 1.9-15.253 4.955-30.152 9.092-44.604z" fill="#f8d070"/></g></svg>