<svg id="Capa_1" enable-background="new 0 0 512 512" height="512" viewBox="0 0 512 512" width="512" xmlns="http://www.w3.org/2000/svg"><g><g><path d="m512 59.667h-256l-21.333 196.333 21.333 196.333h256z" fill="#28485e"/><path d="m0 59.667h256v392.667h-256z" fill="#36607d"/></g><path d="m112.667 181.701h30v211.111h-30z" fill="#28485e"/><path d="m369.333 181.701h30v211.111h-30z" fill="#1b303e"/><path d="m81 120.521h30v30h-30z" fill="#0ed678"/><path d="m145 120.521h30v30h-30z" fill="#9ccefd"/><path d="m209 120.521h30v30h-30z" fill="#fdcb02"/><path d="m273 120.521h30v30h-30z" fill="#0cba68"/><path d="m337 120.521h30v30h-30z" fill="#e07037"/><path d="m401 120.521h30v30h-30z" fill="#6aa7fb"/><g><path d="m271 181.701h-15l-10.667 106.3 10.667 104.811h15z" fill="#1b303e"/><path d="m241 181.701h15v211.111h-15z" fill="#28485e"/></g><ellipse cx="127.667" cy="287.257" fill="#fffbf5" rx="37.665" ry="37.665" transform="matrix(.707 -.707 .707 .707 -165.728 174.41)"/><ellipse cx="384.333" cy="324.145" fill="#f7f0eb" rx="37.665" ry="37.665" transform="matrix(.707 -.707 .707 .707 -116.637 366.704)"/><g><path d="m256 212.701-8.313 33.744 8.313 41.59c20.769 0 37.666-16.897 37.666-37.667s-16.897-37.667-37.666-37.667z" fill="#f7f0eb"/><path d="m218.333 250.368c0 20.77 16.897 37.667 37.667 37.667v-75.334c-20.77 0-37.667 16.897-37.667 37.667z" fill="#fffbf5"/></g></g></svg>